<svg xmlns="http://www.w3.org/2000/svg" aria-hidden="true" style="width:0;height:0;position:absolute;overflow:hidden"><defs><symbol id="icon-loupe" viewBox="0 0 32 32"><path fill="#515262" d="M21.088 18.392c3.037 3.885 7.038 4.808 9.255 7.887s.431 4.495.431 4.495-1.416 1.786-4.495-.431-4.002-6.218-7.886-9.255l2.695-2.695z" style="fill:var(--color1,#515262)"/><path d="M28.346 28.276c-3.079-2.217-4.002-6.218-7.886-9.255l-2.067 2.067c3.885 3.037 4.808 7.038 7.886 9.255s4.495.431 4.495.431.57-.452.666-1.401c-.73.074-1.755-.133-3.094-1.097z" opacity=".1" style="fill:var(--color2,#000)"/><path fill="#b4bbcc" d="M16.832 16.832c1.268-1.268 3.087-1.504 4.062-.529s.739 2.795-.529 4.062c-1.268 1.268-3.087 1.504-4.062.529s-.739-2.795.529-4.062z" style="fill:var(--color3,#b4bbcc)"/><path d="M17.853 19.344c-.766-.766-.785-2.053-.143-3.184a4.08 4.08 0 0 0-.878.672c-1.268 1.268-1.504 3.086-.528 4.062s2.795.739 4.062-.528a4.17 4.17 0 0 0 .672-.878c-1.131.642-2.417.623-3.184-.143z" opacity=".1" style="fill:var(--color2,#000)"/><path fill="#7dd2f0" d="M21.914 11.23c0 5.9-4.783 10.684-10.684 10.684S.546 17.131.546 11.23C.546 5.33 5.329.546 11.23.546S21.914 5.329 21.914 11.23z" style="fill:var(--color4,#7dd2f0)"/><path fill="#fff" d="M18.785 11.23a7.554 7.554 0 1 1-15.108 0 7.554 7.554 0 0 1 15.108 0z" style="fill:var(--color5,#fff)"/><path d="M7.955 16.572a7.554 7.554 0 0 1 4.308-12.825 7.554 7.554 0 1 0 0 14.967 7.513 7.513 0 0 1-4.308-2.142z" opacity=".1" style="fill:var(--color2,#000)"/><path d="M5.32 6.485a.551.551 0 0 0-.762.137l-.001.002a8.093 8.093 0 0 0 .94 10.332c1.53 1.53 3.565 2.373 5.729 2.373s4.199-.843 5.729-2.373c3.159-3.159 3.159-8.299 0-11.458A8.086 8.086 0 0 0 6.16 4.904a.548.548 0 0 0 .687.854l-.001.001a6.99 6.99 0 0 1 9.334.515c2.732 2.732 2.732 7.177 0 9.908-1.323 1.323-3.083 2.052-4.954 2.052s-3.631-.729-4.954-2.052a6.997 6.997 0 0 1-.813-8.934.548.548 0 0 0-.139-.762z" style="fill:var(--color2,#000)"/><path d="M11.227 7.841a.548.548 0 0 0-.548.548v2.29h-2.29a.548.548 0 1 0 0 1.096h2.29v2.29a.548.548 0 1 0 1.096 0v-2.29h2.29a.548.548 0 1 0 0-1.096h-2.29v-2.29a.548.548 0 0 0-.548-.548z" style="fill:var(--color2,#000)"/><path d="M30.784 25.955a8.914 8.914 0 0 0-.678-.829.546.546 0 0 0-.945.378c0 .14.052.268.139.365v-.001c.203.22.398.457.579.705l.016.023c1.827 2.538.624 3.668.532 3.748a.418.418 0 0 0-.086.087c-.011.014-1.122 1.354-3.745-.535-1.4-1.008-2.362-2.457-3.381-3.992-.929-1.4-1.968-2.964-3.477-4.382.019.018.336-.212.367-.234a4.727 4.727 0 0 0 1.415-1.549c1.419 1.51 2.983 2.549 4.384 3.479.644.428 1.253.832 1.827 1.263a.548.548 0 0 0 .66-.876l-.001-.001c-.599-.45-1.221-.863-1.879-1.3-1.543-1.025-3.136-2.085-4.554-3.72.201-.948.02-1.888-.573-2.558 1.963-4.167 1.226-9.3-2.214-12.74-4.379-4.379-11.505-4.379-15.885 0s-4.379 11.505 0 15.885a11.167 11.167 0 0 0 7.83 3.288h.009a.548.548 0 0 0 .003-1.096 10.073 10.073 0 0 1-7.066-2.968C.109 14.443.109 8.012 4.061 4.06s10.383-3.952 14.335 0c3.251 3.251 3.827 8.177 1.73 12.023a10.204 10.204 0 0 1-4.189 4.122 9.865 9.865 0 0 1-2.664.953l-.065.011a.55.55 0 0 0-.43.648l-.001-.004c.059.297.347.49.644.431a11.156 11.156 0 0 0 2.674-.889l-.067.029c.481.424 1.123.656 1.827.656.244 0 .491-.028.736-.08 1.632 1.416 2.69 3.008 3.714 4.549 1.075 1.62 2.091 3.15 3.653 4.275 1.124.809 2.173 1.216 3.13 1.216.244 0 .483-.026.715-.08.781-.179 1.223-.61 1.359-.761.151-.136.582-.578.761-1.359.261-1.141-.121-2.435-1.136-3.845zm-12.932-5.011c-.211 0-.479-.031-.739-.148a11.316 11.316 0 0 0 3.606-3.562l.045-.071.033-.051c.185.404.199.902.056 1.409-.007.017-.014.033-.019.051-.376 1.257-1.628 2.373-2.981 2.373z" style="fill:var(--color2,#000)"/></symbol></defs></svg>